<svg class="logo" version="1.1" x="0px" y="0px" viewBox="0 0 730 230" enable-background="new 0 0 730 230" xml:space="preserve">
	<g>
		<path fill="#5B8C7F" d="M0,0v119.9h35.6v17.3c3.2-6.2,8.1-11.9,13.8-15.3c5.9-3.7,12.1-4.7,19-4.7c4.4,0,7.7,0.5,11.6,1.7l-2,33.3c-4.7-2.5-9.9-3.9-16-3.9c-7.7,0-13.3,2.7-17.8,7.4c-7.9,8.4-8.6,20.2-8.6,29.6V230h126.3c-15.8,0-29.1-4-41.2-16.8c-11.6-12.3-16-26.7-16-41.2c0-18.5,6.9-34.3,17-44.4c9.6-9.6,23-15.1,38.3-15.1c9.4,0,24.4,2.2,34.6,16v-12.3H230V0H0z"/>
		<path fill="#5B8C7F" d="M168.8,143.1c-7.7,0-14.8,3.2-19.5,7.9c-3.7,3.7-8.1,10.1-8.1,20c0,9.9,4.2,16.3,7.4,19.7c4.9,5.2,12.6,8.6,21,8.6c7.2,0,13.8-3,18.5-7.7c4.7-4.4,8.6-11.4,8.6-20.7c0-7.9-3-15.3-8.1-20.2C183.1,145.6,175.2,143.1,168.8,143.1z"/>
		<path fill="#5B8C7F" d="M194.4,213c-9.6,14.8-23.5,17-32.6,17h32.6V213z"/>
	</g>
	<g>
		<path fill="none" d="M616.5,194.2l-33.6-3.5c-3,6.2-7.2,8.9-7.7,9.1c-3.7,2.2-9.1,3.2-14.3,3.2c-5.4,0-12.8-1-18.3-6.9c-4.4-4.9-6.7-12.8-6.7-18.8h82.2v-3.7c0-13.6-2.5-30.9-15.6-44.7c-13.6-14.3-31.4-16.5-43.7-16.5c-12.3,0-28.9,2.5-42.2,15.8c-11.1,11.4-16.8,27.7-16.8,43.5c0,18.3,6.9,32.8,16.5,42.5c12.8,12.8,27.4,15.8,43.9,15.8c12.3,0,24.2-1.7,34.8-8.1C601.7,217.9,611.6,209.8,616.5,194.2z M543.5,144.3c3.5-3.5,8.9-7.2,18-7.2c7.2,0,12.8,2.5,16.8,6.2c5.2,4.9,6.9,11.9,7.2,12.8h-48.1C538.3,151.2,540.7,147.3,543.5,144.3z"/>
		<path fill="#AF4C4A" d="M500,171.7V230h60.5c-16.5,0-31.1-3-43.9-15.8C506.9,204.6,500,190,500,171.7z"/>
		<path fill="#AF4C4A" d="M500,0v171.7c0-15.8,5.7-32.1,16.8-43.5c13.3-13.3,29.9-15.8,42.2-15.8c12.3,0,30.1,2.2,43.7,16.5c13.1,13.8,15.6,31.1,15.6,44.7v3.7H536c0,5.9,2.2,13.8,6.7,18.8c5.4,5.9,12.8,6.9,18.3,6.9c5.2,0,10.6-1,14.3-3.2c0.5-0.2,4.7-3,7.7-9.1l33.6,3.5c-4.9,15.6-14.8,23.7-21.2,27.7c-10.6,6.4-22.5,8.1-34.8,8.1H650V119.9h35.6v17.3c3.2-6.2,8.1-11.9,13.8-15.3c5.9-3.7,12.1-4.7,19-4.7c4.4,0,7.7,0.5,11.6,1.7V0H500z"/>
		<path fill="#AF4C4A" d="M694.2,155.7c-7.9,8.4-8.6,20.2-8.6,29.6V230H730v-76.8c-4.7-2.5-11.9-4.9-18-4.9C704.3,148.3,698.6,151,694.2,155.7z"/>
		<path fill="#AF4C4A" d="M578.3,143.3c-4-3.7-9.6-6.2-16.8-6.2c-9.1,0-14.6,3.7-18,7.2c-2.7,3-5.2,6.9-6.2,11.8h48.1C585.2,155.2,583.4,148.3,578.3,143.3z"/>
	</g>
	<g>
		<path fill="#46433A" d="M424.6,146.4c-7.7,0-12.1,3.5-14.1,5.4c-7.2,6.9-7.4,17.6-7.4,23V230h41.3v-56.7c0-7.7-0.2-16.6-5.9-22C435.2,148.1,429.8,146.4,424.6,146.4z"/>
		<path fill="#46433A" d="M250,0v230h22v-81.5h-12.3v-28.6H272V84.3h35.6v35.6h22v28.6h-22V230h59.9V49.6H403v83.1c4.5-5.4,9.2-9.2,13.4-11.4c7.4-4,13.6-4.7,21.5-4.7c8.7,0,21.5,1.2,31.2,11.1c10.1,10.1,10.9,23.8,10.9,32.2V0H250z"/>
	</g>
</svg>
